<svg id="レイヤー_1" data-name="レイヤー 1" xmlns="http://www.w3.org/2000/svg" viewBox="0 0 161.73 144.57"><defs><style>.cls-1{fill:#0054a7;}.cls-2{fill:#fff;}.cls-3{fill:#0086d1;}</style></defs><path class="cls-1" d="M40.82,117.46c5.1.59,13.32,2.26,13.32,2.26a9.83,9.83,0,0,1,5.66,4.46c2.32,3.58,5.78,4.53,9.11,2.37l3.12.19c0,.82-.73,3.22-.81,4-.49,4.76.52,2.76.81,4.9-1,.4,1.19-.65,0,0l-4.76.23c-2.4-3.16-6-3.43-9.37-.86a9.76,9.76,0,0,1-6.83,2.29,109.71,109.71,0,0,1-12.52-.92c-7.71-1.32-15.79-11.87-15.79-11.87S33.05,116.56,40.82,117.46Z" transform="translate(-22.76 -22.72)"/><path class="cls-2" d="M50.92,122.28,40,121c-4.5-.8-8.78,2.38-12.67,4.5L60.5,130C56.23,128.48,54.52,123,50.92,122.28Z" transform="translate(-22.76 -22.72)"/><path class="cls-1" d="M56.85,115.72A51.06,51.06,0,0,1,73.61,41.78l25,44.53Z" transform="translate(-22.76 -22.72)"/><path class="cls-2" d="M74.74,63.12,76.94,67A33,33,0,0,0,70.28,87a32.61,32.61,0,0,0,.84,7.32l-3.65,2.57a37.19,37.19,0,0,1,7.27-33.74Z" transform="translate(-22.76 -22.72)"/><path class="cls-2" d="M69,53l2.25,4a44.22,44.22,0,0,0-9.46,43.82l-3.73,2.63A48.64,48.64,0,0,1,69,53Z" transform="translate(-22.76 -22.72)"/><path class="cls-2" d="M80.42,73.26l2.17,3.86a22.71,22.71,0,0,0-2.23,9.82c0,.28,0,.55,0,.83l-3.56,2.5a26,26,0,0,1,3.59-17Z" transform="translate(-22.76 -22.72)"/><path class="cls-3" d="M132.91,122.75l-4.06,12.33c-4,12.29-15.7,21-29.89,22.51C88.43,148,84.23,134,88.27,121.73l4.06-12.33Z" transform="translate(-22.76 -22.72)"/><path class="cls-1" d="M129.58,140.07l12.56,2.43c2.76.48,5.21,1,4.67,4.11s-3,2.76-5.78,2.28l-15.54-2.41A33.25,33.25,0,0,0,129.58,140.07Z" transform="translate(-22.76 -22.72)"/><path class="cls-1" d="M114.09,155.72a37.55,37.55,0,0,0,6.77-4.53,11.74,11.74,0,0,0,6.11.15c.56-1.24,1.28-2,2.08-2,1.79,0,3.25,3.7,3.27,8.28,0,3.24-.7,6-1.76,7.42a3.61,3.61,0,1,1-4.54-4.76,22,22,0,0,1-.18-2.63c0-.69,0-1.36.1-2A16.31,16.31,0,0,1,114.09,155.72Z" transform="translate(-22.76 -22.72)"/><path class="cls-1" d="M45,150.92c1.31-2,6.51-.89,11.61,2.46.77.5,1.48,1,2.15,1.57,2.05-9.68,9.6-15,16.49-17.28a35.5,35.5,0,0,1-.62-6.2,38.2,38.2,0,0,1,.85-8.54,43.29,43.29,0,0,1-10.23-9L103,87.32,80.44,47a43.39,43.39,0,0,1,20.65-3.9l4.64.51a43.31,43.31,0,0,1,22,74.78l-37-12.18-4.85,14.75c-3.6,11-1.2,22.6,5.5,31.94A30.12,30.12,0,0,1,81,148.24c-8.48,2.24-16.28,5.91-18.22,11,1,1.53,1.29,2.9.7,3.79-1.31,2-6.51.89-11.61-2.46S43.66,152.91,45,150.92Z" transform="translate(-22.76 -22.72)"/><path class="cls-3" d="M154.38,47.61c14.1,37,24.5,25,30.1,21.16C176,88.09,144.31,96.14,132.73,47.16c-5.19-21.94-19.68-18.26-27-3.58l-4.64-.51C104.86,22.88,139.28,7.91,154.38,47.61Z" transform="translate(-22.76 -22.72)"/><path class="cls-2" d="M113.42,150.63l-21.72-7,.4-1.22,1.05.33c1.68.54,2.86-.19,3.4-1.87l6.78-21.07a2,2,0,0,0-1.43-2.73l-1.49-.48.4-1.23,13.46,4.33-.39,1.23-1.16-.37a2.34,2.34,0,0,0-3,1.68l-6.77,21c-.54,1.68-.1,2.6,1.43,3.09l.56.19a11.62,11.62,0,0,0,12.08-2.87l.88.86Z" transform="translate(-22.76 -22.72)"/></svg>